{
  "asset": { "version": "2.0", "generator": "Spectra Engine test fixture generator" },
  "scene": 0,
  "scenes": [ { "name": "Signpost", "nodes": [ 0 ] } ],
  "nodes": [
    { "name": "Signpost", "children": [ 1, 2 ] },
    { "name": "Post", "mesh": 0 },
    { "name": "Sign", "mesh": 1, "translation": [ 0, 26, 0 ], "rotation": [ 0, 0.17364818, 0, 0.9848077 ] }
  ],
  "meshes": [
    { "name": "PostMesh", "primitives": [ { "attributes": { "POSITION": 0, "NORMAL": 1, "TEXCOORD_0": 2 }, "indices": 3, "material": 0, "mode": 4 } ] },
    { "name": "SignMesh", "primitives": [ { "attributes": { "POSITION": 4, "NORMAL": 5, "TEXCOORD_0": 6 }, "indices": 7, "material": 1, "mode": 4 } ] }
  ],
  "materials": [
    { "name": "PostWood", "pbrMetallicRoughness": { "baseColorTexture": { "index": 0 }, "baseColorFactor": [ 1, 1, 1, 1 ] } },
    { "name": "SignFace", "pbrMetallicRoughness": { "baseColorTexture": { "index": 1 }, "baseColorFactor": [ 0.9, 0.9, 0.85, 1 ] } }
  ],
  "textures": [ { "source": 0 }, { "source": 1 } ],
  "images": [ { "uri": "../Textures/wall_brick.png" }, { "uri": "../Textures/dev_grid.png" } ],
  "accessors": [
    {"bufferView":0,"componentType":5126,"count":24,"type":"VEC3","min":[-2,0,-2],"max":[2,32,2]},
    {"bufferView":1,"componentType":5126,"count":24,"type":"VEC3"},
    {"bufferView":2,"componentType":5126,"count":24,"type":"VEC2"},
    {"bufferView":3,"componentType":5123,"count":36,"type":"SCALAR"},
    {"bufferView":4,"componentType":5126,"count":24,"type":"VEC3","min":[-12,-6,-0.5],"max":[12,6,0.5]},
    {"bufferView":5,"componentType":5126,"count":24,"type":"VEC3"},
    {"bufferView":6,"componentType":5126,"count":24,"type":"VEC2"},
    {"bufferView":7,"componentType":5123,"count":36,"type":"SCALAR"}
  ],
  "bufferViews": [
    {"buffer":0,"byteOffset":0,"byteLength":288,"target":34962},
    {"buffer":0,"byteOffset":288,"byteLength":288,"target":34962},
    {"buffer":0,"byteOffset":576,"byteLength":192,"target":34962},
    {"buffer":0,"byteOffset":768,"byteLength":72,"target":34963},
    {"buffer":0,"byteOffset":840,"byteLength":288,"target":34962},
    {"buffer":0,"byteOffset":1128,"byteLength":288,"target":34962},
    {"buffer":0,"byteOffset":1416,"byteLength":192,"target":34962},
    {"buffer":0,"byteOffset":1608,"byteLength":72,"target":34963}
  ],
  "buffers": [ { "byteLength": 1680, "uri": "data:application/octet-stream;base64," } ]
}
